STARTFONT 2.1
FONT -Monotype-Nimrod-Bold-I-Normal--24-240-75-75-P-163-iso8859-5
SIZE 24 75 75
FONTBOUNDINGBOX 38 31 -4 -6

STARTPROPERTIES 24
FOUNDRY "Monotype"
FAMILY_NAME "Nimrod"
WEIGHT_NAME "Bold"
SLANT "I"
SETWIDTH_NAME "Normal"
ADD_STYLE_NAME ""
PIXEL_SIZE 24
POINT_SIZE 240
RESOLUTION_X 75
RESOLUTION_Y 75
SPACING "P"
AVERAGE_WIDTH 163
CHARSET_REGISTRY "iso8859"
CHARSET_ENCODING "5"
FACE_NAME "Nimrod Bold Inclined ISO Latin Cyrillic"
_DEC_DEVICE_FONTNAMES "PS=nimrod-bin-latcyrillic"
COPYRIGHT "Copyright (c) 1993 Monotype Typography Ltd."
CAP_HEIGHT 22
X_HEIGHT 16
WEIGHT 10
QUAD_WIDTH 18
DEFAULT_CHAR 160
FONT_DESCENT 6
FONT_ASCENT 25
ENDPROPERTIES

CHARS 191

STARTCHAR space
ENCODING 32
SWIDTH 250 0
DWIDTH 6 0
BBX 0 0 0 0
BITMAP
ENDCHAR

STARTCHAR exclam
ENCODING 33
SWIDTH 375 0
DWIDTH 9 0
BBX 8 19 1 0
BITMAP
07
0F
0F
0F
0E
0E
0C
1C
18
18
10
10
30
00
00
F0
F0
F0
70
ENDCHAR

STARTCHAR quotedbl
ENCODING 34
SWIDTH 552 0
DWIDTH 14 0
BBX 10 8 4 9
BITMAP
71C0
73C0
F3C0
E380
E380
C300
C300
8200
ENDCHAR

STARTCHAR numbersign
ENCODING 35
SWIDTH 667 0
DWIDTH 17 0
BBX 15 18 1 -1
BITMAP
0608
0418
0C18
0C18
0C10
FFFE
FFFE
1830
1830
1820
1060
FFFE
FFFE
3060
3040
30C0
20C0
60C0
ENDCHAR

STARTCHAR dollar
ENCODING 36
SWIDTH 510 0
DWIDTH 13 0
BBX 14 22 0 -3
BITMAP
0060
01E0
07F8
0EDC
0CDC
1C9C
1C9C
1F80
0F00
0F80
07C0
03E0
03F0
62F0
F670
F670
E460
64E0
3F80
0800
0800
1800
ENDCHAR

STARTCHAR percent
ENCODING 37
SWIDTH 1000 0
DWIDTH 25 0
BBX 19 18 5 0
BITMAP
1F0080
3B8100
738200
738600
F38C00
E78800
E71000
E72000
6E6000
78C7C0
018EE0
011CE0
021CE0
043DE0
0C39C0
1839C0
103B80
601F00
ENDCHAR

STARTCHAR ampersand
ENCODING 38
SWIDTH 927 0
DWIDTH 23 0
BBX 21 19 1 0
BITMAP
007E00
00E700
01C300
01C300
03C700
03CE00
03DC00
01F000
0FE000
3DE3F8
78E0C0
F0F080
F0F180
F07B00
F07E00
F81C10
7C3E60
3FEFE0
0F8780
ENDCHAR

STARTCHAR quoteright
ENCODING 39
SWIDTH 323 0
DWIDTH 8 0
BBX 5 8 4 11
BITMAP
30
78
78
78
18
30
E0
80
ENDCHAR

STARTCHAR parenleft
ENCODING 40
SWIDTH 385 0
DWIDTH 10 0
BBX 11 23 1 -4
BITMAP
00E0
0180
0380
0700
0E00
1E00
3C00
3C00
7800
7800
7800
F000
F000
F000
F000
F000
7000
7000
7000
3000
3800
1800
0C00
ENDCHAR

STARTCHAR parenright
ENCODING 41
SWIDTH 385 0
DWIDTH 10 0
BBX 11 23 -2 -4
BITMAP
0600
0300
0180
0180
01C0
01C0
01C0
01E0
01E0
01E0
01E0
01E0
03E0
03C0
03C0
0380
0780
0700
0E00
1C00
1800
3000
E000
ENDCHAR

STARTCHAR asterisk
ENCODING 42
SWIDTH 552 0
DWIDTH 14 0
BBX 11 11 4 8
BITMAP
0700
0700
E700
F600
F4E0
0BE0
1DE0
F600
E700
E700
0700
ENDCHAR

STARTCHAR plus
ENCODING 43
SWIDTH 667 0
DWIDTH 17 0
BBX 14 14 1 1
BITMAP
0300
0300
0300
0300
0300
0300
FFFC
FFFC
0300
0300
0300
0300
0300
0300
ENDCHAR

STARTCHAR comma
ENCODING 44
SWIDTH 323 0
DWIDTH 8 0
BBX 5 7 0 -3
BITMAP
30
78
78
78
18
30
C0
ENDCHAR

STARTCHAR minus
ENCODING 45
SWIDTH 667 0
DWIDTH 17 0
BBX 13 2 2 7
BITMAP
FFF8
FFF8
ENDCHAR

STARTCHAR period
ENCODING 46
SWIDTH 323 0
DWIDTH 8 0
BBX 4 4 0 0
BITMAP
F0
F0
F0
70
ENDCHAR

STARTCHAR slash
ENCODING 47
SWIDTH 552 0
DWIDTH 14 0
BBX 12 20 1 0
BITMAP
0030
0060
0060
00C0
00C0
0180
0180
0300
0300
0600
0600
0C00
0C00
1800
1800
3000
3000
6000
6000
C000
ENDCHAR

STARTCHAR zero
ENCODING 48
SWIDTH 562 0
DWIDTH 14 0
BBX 13 18 2 0
BITMAP
07E0
0E70
1E38
3C38
3C38
7838
7878
7878
F078
F078
F0F0
F0F0
E0F0
E1E0
E1C0
63C0
7380
3E00
ENDCHAR

STARTCHAR one
ENCODING 49
SWIDTH 562 0
DWIDTH 14 0
BBX 12 18 1 0
BITMAP
0030
00E0
0FE0
01E0
01C0
01C0
03C0
03C0
0380
0380
0780
0780
0700
0F00
0F00
0F00
1F00
FFC0
ENDCHAR

STARTCHAR two
ENCODING 50
SWIDTH 562 0
DWIDTH 14 0
BBX 15 18 0 0
BITMAP
03F8
063C
061E
0E1E
0F1E
0F1E
063C
007C
0078
00E0
01C0
0700
0E00
1C0C
3018
3FF8
7FF0
FFF0
ENDCHAR

STARTCHAR three
ENCODING 51
SWIDTH 562 0
DWIDTH 14 0
BBX 13 18 1 0
BITMAP
07E0
0C78
1C38
1C38
0C38
0078
00F0
0FE0
1F80
00E0
00F0
20F0
70F0
F0F0
E0E0
E1E0
63C0
3F00
ENDCHAR

STARTCHAR four
ENCODING 52
SWIDTH 562 0
DWIDTH 14 0
BBX 14 18 1 0
BITMAP
000C
001C
0038
0078
00F8
0178
0270
0470
18F0
30E0
60E0
41E0
FFF8
01C0
01C0
03C0
03C0
1FF0
ENDCHAR

STARTCHAR five
ENCODING 53
SWIDTH 562 0
DWIDTH 14 0
BBX 15 17 1 1
BITMAP
07FE
07FC
0FFC
0800
1800
13C0
1FF0
38F0
0078
0078
0078
6078
F0F0
F0F0
E1E0
63C0
3F80
ENDCHAR

STARTCHAR six
ENCODING 54
SWIDTH 562 0
DWIDTH 14 0
BBX 14 18 2 0
BITMAP
01F0
0718
0E3C
1C3C
3C18
3800
7800
73C0
77E0
F8F0
F0F0
F0F0
E0F0
E0F0
E1E0
61E0
73C0
1F00
ENDCHAR

STARTCHAR seven
ENCODING 55
SWIDTH 562 0
DWIDTH 14 0
BBX 12 18 4 0
BITMAP
7FF0
7FF0
FF60
C0C0
8180
0300
0300
0600
0C00
1C00
1C00
3800
7800
7000
F000
F000
E000
2000
ENDCHAR

STARTCHAR eight
ENCODING 56
SWIDTH 562 0
DWIDTH 14 0
BBX 14 18 1 0
BITMAP
03F0
0F38
1E1C
1E1C
1C1C
1C3C
1C38
0A78
07C0
3CF0
7878
7878
F078
F078
F0F0
F0F0
79E0
3F80
ENDCHAR

STARTCHAR nine
ENCODING 57
SWIDTH 562 0
DWIDTH 14 0
BBX 14 18 1 0
BITMAP
03F0
0F38
1E1C
1E1C
3C1C
3C1C
3C3C
3C3C
3E7C
1FD8
0F78
0078
0070
60F0
F0E0
F1C0
7780
3E00
ENDCHAR

STARTCHAR colon
ENCODING 58
SWIDTH 323 0
DWIDTH 8 0
BBX 7 14 0 0
BITMAP
1E
1E
1E
1E
00
00
00
00
00
00
F0
F0
F0
70
ENDCHAR

STARTCHAR semicolon
ENCODING 59
SWIDTH 323 0
DWIDTH 8 0
BBX 8 17 -1 -3
BITMAP
0F
0F
0F
07
00
00
00
00
00
10
78
78
78
38
10
60
C0
ENDCHAR

STARTCHAR less
ENCODING 60
SWIDTH 667 0
DWIDTH 17 0
BBX 13 13 2 2
BITMAP
0008
0038
00F8
07C0
1F00
7C00
C000
F000
7C00
0F80
03E0
0078
0018
ENDCHAR

STARTCHAR equal
ENCODING 61
SWIDTH 667 0
DWIDTH 17 0
BBX 13 8 2 4
BITMAP
FFF8
FFF8
0000
0000
0000
0000
FFF8
FFF8
ENDCHAR

STARTCHAR greater
ENCODING 62
SWIDTH 667 0
DWIDTH 17 0
BBX 13 13 2 2
BITMAP
8000
C000
F800
3E00
0780
01F0
0078
0078
03E0
0F80
7C00
F000
C000
ENDCHAR

STARTCHAR question
ENCODING 63
SWIDTH 458 0
DWIDTH 11 0
BBX 11 19 2 0
BITMAP
1F80
73C0
71E0
71E0
71E0
03C0
07C0
0F00
1E00
1800
3000
2000
2000
0000
0000
F000
F000
F000
7000
ENDCHAR

STARTCHAR at
ENCODING 64
SWIDTH 833 0
DWIDTH 21 0
BBX 21 22 0 -5
BITMAP
00FE00
030180
0C0040
180020
300020
607710
40D610
418E10
C38E10
839C10
831C10
871C10
873C20
873820
C75840
47B988
431E10
200010
300060
080080
070700
00F800
ENDCHAR

STARTCHAR A
ENCODING 65
SWIDTH 802 0
DWIDTH 20 0
BBX 20 19 -1 0
BITMAP
000600
000600
000E00
001F00
001F00
003700
006F00
006F00
00C700
008780
018780
030780
03FF80
07FF80
0C0380
0803C0
1803C0
3803C0
FE1FF0
ENDCHAR

STARTCHAR B
ENCODING 66
SWIDTH 802 0
DWIDTH 20 0
BBX 20 19 0 0
BITMAP
0FFFC0
03E3E0
01E0F0
03C0F0
03C0F0
03C0F0
03C1F0
07C1E0
078780
07FE00
0787C0
0F03E0
0F01E0
0F01E0
0F01E0
1E03E0
1E07C0
1E0F80
FFFF00
ENDCHAR

STARTCHAR C
ENCODING 67
SWIDTH 740 0
DWIDTH 18 0
BBX 18 19 2 0
BITMAP
00FE00
03C380
0F81C0
1F01C0
3E00C0
3C0080
7C0080
7C0000
780000
F80000
F80000
F80000
F80000
F80100
780300
7C0600
3E0C00
1FF800
07E000
ENDCHAR

STARTCHAR D
ENCODING 68
SWIDTH 854 0
DWIDTH 21 0
BBX 21 19 0 0
BITMAP
0FFF80
03E3E0
03C0F0
03C0F0
03C078
07C078
078078
078078
078078
0F80F8
0F00F8
0F00F8
0F01F0
1F01F0
1E01E0
1E03C0
1E07C0
3E1F00
FFFC00
ENDCHAR

STARTCHAR E
ENCODING 69
SWIDTH 740 0
DWIDTH 18 0
BBX 20 19 0 0
BITMAP
0FFFF0
03E1E0
03C060
03C060
03C040
07C640
078400
078C00
079C00
0FFC00
0F3800
0F1800
0F1800
1F18C0
1E0080
1E0180
1E0380
3E0F00
FFFF00
ENDCHAR

STARTCHAR F
ENCODING 70
SWIDTH 729 0
DWIDTH 18 0
BBX 20 19 0 0
BITMAP
0FFFF0
03E1E0
03C060
03C060
03C060
07C660
078600
078C00
079C00
0FFC00
0F3C00
0F0800
0F1800
1F1800
1E0000
1E0000
1E0000
3E0000
FFC000
ENDCHAR

STARTCHAR G
ENCODING 71
SWIDTH 854 0
DWIDTH 21 0
BBX 19 19 2 0
BITMAP
01FF00
07C7C0
0F01C0
1E01C0
3E00C0
7C00C0
7C0080
F80000
F80000
F80000
F83FE0
F00F80
F00780
F00F80
F00F00
780F00
781F00
3C3E00
0FF000
ENDCHAR

STARTCHAR H
ENCODING 72
SWIDTH 865 0
DWIDTH 22 0
BBX 24 19 0 0
BITMAP
0FFBFF
03E078
03C078
03C0F8
07C0F0
0780F0
0780F0
0781F0
0FFFE0
0FFFE0
0F01E0
0F03E0
1F03C0
1E03C0
1E03C0
1E07C0
3E0780
3E07C0
FFBFF0
ENDCHAR

STARTCHAR I
ENCODING 73
SWIDTH 479 0
DWIDTH 12 0
BBX 14 19 0 0
BITMAP
0FFC
01E0
01E0
03E0
03C0
03C0
03C0
0780
0780
0780
0780
0F00
0F00
0F00
0F00
1E00
1E00
3E00
FFC0
ENDCHAR

STARTCHAR J
ENCODING 74
SWIDTH 656 0
DWIDTH 16 0
BBX 19 19 0 0
BITMAP
00FFE0
001F00
001F00
001E00
001E00
001E00
003C00
003C00
003C00
003C00
007800
307800
787800
F87800
F8F000
E0F000
E1E000
73C000
3F8000
ENDCHAR

STARTCHAR K
ENCODING 75
SWIDTH 823 0
DWIDTH 21 0
BBX 23 19 0 0
BITMAP
0FFBFE
03E0F0
03C0E0
03C1C0
03C300
07C600
078C00
07BC00
07BC00
0FFC00
0F9E00
0F1E00
0F1E00
1E0F00
1E0F00
1E0F00
1E0780
3E0FC0
FFBFF0
ENDCHAR

STARTCHAR L
ENCODING 76
SWIDTH 698 0
DWIDTH 17 0
BBX 17 19 0 0
BITMAP
0FFC00
03E000
03C000
03C000
03C000
07C000
078000
078000
078000
0F8000
0F0000
0F0000
0F0000
1F0180
1E0100
1E0300
1E0700
3E1F00
FFFE00
ENDCHAR

STARTCHAR M
ENCODING 77
SWIDTH 1031 0
DWIDTH 26 0
BBX 28 19 0 0
BITMAP
0FF00FF0
03701B80
03701B80
03703780
02F02F80
02F06F00
0670CF00
0678CF00
04799E00
04791E00
0C7B1E00
0C7A1E00
087E3C00
087C3C00
187C3C00
18783C00
18707800
7C307C00
FE23FF00
ENDCHAR

STARTCHAR N
ENCODING 78
SWIDTH 833 0
DWIDTH 21 0
BBX 23 19 0 0
BITMAP
1FC0FE
03E038
03E030
037030
02F030
067830
067820
067C60
043C60
0C3E60
0C1E40
0C1FC0
080FC0
180F80
180780
180780
380380
780300
FE0300
ENDCHAR

STARTCHAR O
ENCODING 79
SWIDTH 823 0
DWIDTH 21 0
BBX 19 19 2 0
BITMAP
01FE00
07C780
0F03C0
1E01C0
3E01E0
3C01E0
7C01E0
7C01E0
F803E0
F803E0
F803E0
F803C0
F007C0
F00780
F00F80
700F00
781E00
3C7C00
0FF000
ENDCHAR

STARTCHAR P
ENCODING 80
SWIDTH 771 0
DWIDTH 19 0
BBX 20 19 0 0
BITMAP
0FFFC0
03E3E0
03E0F0
03C0F0
03C0F0
03C0F0
0781F0
0783E0
0787E0
07FF80
0F0000
0F0000
0F0000
0F0000
1E0000
1E0000
1E0000
3E0000
FFC000
ENDCHAR

STARTCHAR Q
ENCODING 81
SWIDTH 823 0
DWIDTH 21 0
BBX 19 22 2 -3
BITMAP
01FE00
03C780
0F03C0
1E01C0
3E01E0
3C01E0
7C01E0
7C01E0
F803E0
F803E0
F803E0
FBC3E0
F7E7C0
F877C0
F07F80
703F00
783E00
3C7800
0FFC00
000E00
000F20
0003E0
ENDCHAR

STARTCHAR R
ENCODING 82
SWIDTH 823 0
DWIDTH 21 0
BBX 20 19 -1 0
BITMAP
0FFFC0
01E3E0
01E0F0
03E0F0
03C0F0
03C0F0
03C1F0
07C3E0
0787C0
07FD00
079F00
0F8F00
0F0780
0F0780
0F0780
1F0780
1E03C0
1F03C0
FFC3F0
ENDCHAR

STARTCHAR S
ENCODING 83
SWIDTH 667 0
DWIDTH 17 0
BBX 17 19 0 0
BITMAP
03FE00
078F80
0E0380
1E0300
1E0300
1F0300
1F8000
0FE000
07F800
03FC00
00FE00
003F00
201F00
200F00
600F00
700E00
701E00
FC3C00
3FF000
ENDCHAR

STARTCHAR T
ENCODING 84
SWIDTH 750 0
DWIDTH 19 0
BBX 18 19 2 0
BITMAP
3FFFC0
3CF3C0
30F1C0
61E180
61E080
41E180
C1E180
03C000
03C000
03C000
03C000
078000
078000
078000
078000
0F0000
0F0000
0F0000
FFE000
ENDCHAR

STARTCHAR U
ENCODING 85
SWIDTH 792 0
DWIDTH 20 0
BBX 19 19 3 0
BITMAP
FFCFE0
1E03C0
1E0180
1E0100
3C0300
3C0300
3C0200
7C0200
780600
780600
780400
F80C00
F00C00
F00800
F01800
F01000
783000
3FE000
0F8000
ENDCHAR

STARTCHAR V
ENCODING 86
SWIDTH 771 0
DWIDTH 19 0
BBX 19 19 3 0
BITMAP
FF8FE0
3C03C0
3C0300
3C0300
1C0600
1E0400
1E0C00
1E0800
1E1800
1E3000
0E2000
0F6000
0F4000
0FC000
0F8000
0F0000
070000
060000
060000
ENDCHAR

STARTCHAR W
ENCODING 87
SWIDTH 1104 0
DWIDTH 28 0
BBX 27 19 3 0
BITMAP
FF3FE7E0
3E0F01C0
1C0F0380
1C0F0300
1E0F0600
1E0F0600
1E1F0C00
1E170C00
1E379800
1E679000
1E67B000
0EC7A000
0E87E000
0F87C000
0F07C000
0F038000
0E030000
0C030000
0C020000
ENDCHAR

STARTCHAR X
ENCODING 88
SWIDTH 823 0
DWIDTH 21 0
BBX 24 19 -1 0
BITMAP
0FFCFF
01F03C
01F038
00F070
00F8E0
0079C0
007B00
003E00
003C00
003E00
003E00
006F00
01CF00
038F00
060780
0E0780
1C03C0
7E07E0
FF1FF8
ENDCHAR

STARTCHAR Y
ENCODING 89
SWIDTH 771 0
DWIDTH 19 0
BBX 19 19 3 0
BITMAP
FF9FE0
3E0780
3E0300
1E0600
1E0C00
0F0C00
0F1800
07B000
07E000
07E000
03C000
03C000
078000
078000
078000
078000
0F0000
0F8000
7FE000
ENDCHAR

STARTCHAR Z
ENCODING 90
SWIDTH 719 0
DWIDTH 18 0
BBX 19 19 1 0
BITMAP
07FFE0
0787C0
0E0F80
0C1F00
0C1F00
183E00
007C00
00F800
01F000
01F000
03E000
07C000
0F8000
1F0300
1F0300
3E0600
7C0E00
F87E00
FFFC00
ENDCHAR

STARTCHAR bracketleft
ENCODING 91
SWIDTH 396 0
DWIDTH 10 0
BBX 12 22 0 -3
BITMAP
03F0
0780
0780
0700
0700
0F00
0F00
0E00
0E00
1E00
1E00
1C00
3C00
3C00
3800
3800
7800
7800
7000
7000
F000
FE00
ENDCHAR

STARTCHAR backslash
ENCODING 92
SWIDTH 552 0
DWIDTH 14 0
BBX 12 20 1 0
BITMAP
C000
6000
6000
3000
3000
1800
1800
0C00
0C00
0600
0600
0300
0300
0180
0180
00C0
00C0
0060
0060
0030
ENDCHAR

STARTCHAR bracketright
ENCODING 93
SWIDTH 396 0
DWIDTH 10 0
BBX 12 22 -2 -3
BITMAP
03F0
00F0
00F0
00E0
00E0
01E0
01E0
01C0
01C0
03C0
03C0
0380
0780
0780
0700
0700
0F00
0F00
0E00
0E00
1E00
FE00
ENDCHAR

STARTCHAR asciicircum
ENCODING 94
SWIDTH 573 0
DWIDTH 14 0
BBX 11 9 3 8
BITMAP
0C00
0C00
1E00
1B00
3300
6180
6180
C0C0
C0E0
ENDCHAR

STARTCHAR underscore
ENCODING 95
SWIDTH 500 0
DWIDTH 13 0
BBX 13 2 0 -6
BITMAP
FFF8
FFF8
ENDCHAR

STARTCHAR quoteleft
ENCODING 96
SWIDTH 323 0
DWIDTH 8 0
BBX 5 8 4 11
BITMAP
18
30
60
E0
F0
F0
F0
60
ENDCHAR

STARTCHAR a
ENCODING 97
SWIDTH 667 0
DWIDTH 17 0
BBX 15 14 1 0
BITMAP
0786
1FDC
1E6C
3C3C
783C
7838
7878
F078
F070
F0F0
F0F2
F3F4
7EF8
3C70
ENDCHAR

STARTCHAR b
ENCODING 98
SWIDTH 635 0
DWIDTH 16 0
BBX 15 19 0 0
BITMAP
1F80
0780
0780
0700
0F00
0F78
0EFC
1F9E
1E1E
1E1E
1C1E
3C1E
3C3C
383C
783C
7878
78F0
69E0
8F80
ENDCHAR

STARTCHAR c
ENCODING 99
SWIDTH 510 0
DWIDTH 13 0
BBX 12 14 1 0
BITMAP
07E0
0E70
1C70
3870
7820
7000
7000
F000
F000
F000
F060
78C0
7F80
1E00
ENDCHAR

STARTCHAR d
ENCODING 100
SWIDTH 667 0
DWIDTH 17 0
BBX 16 19 1 0
BITMAP
003F
000F
000F
000E
001E
079E
1FDC
1E6C
3C3C
783C
7838
7878
F078
F070
F070
F0F2
F3F4
7EF8
3C70
ENDCHAR

STARTCHAR e
ENCODING 101
SWIDTH 500 0
DWIDTH 13 0
BBX 12 14 1 0
BITMAP
07E0
0E70
1C70
3870
78F0
70E0
F3C0
F700
FC00
F000
F060
78C0
7F80
1E00
ENDCHAR

STARTCHAR f
ENCODING 102
SWIDTH 406 0
DWIDTH 10 0
BBX 18 23 -4 -4
BITMAP
000FC0
001DC0
0039C0
007840
007000
007000
03FC00
03FC00
00E000
00E000
01E000
01E000
01C000
01C000
03C000
038000
038000
038000
070000
070000
C60000
EC0000
F80000
ENDCHAR

STARTCHAR g
ENCODING 103
SWIDTH 625 0
DWIDTH 16 0
BBX 17 18 -1 -4
BITMAP
01FF80
079D00
0F0E00
0F0E00
0E1E00
0E1E00
033C00
07F000
180000
380000
3FF000
3FF800
1FFC00
703C00
E01C00
E01800
707000
3FC000
ENDCHAR

STARTCHAR h
ENCODING 104
SWIDTH 677 0
DWIDTH 17 0
BBX 16 20 0 0
BITMAP
0180
1F80
0780
0780
0700
0F00
0F3C
0E7E
0EDE
1F1E
1E3C
1C3C
3C3C
3C78
3878
3878
78F3
78F6
70FC
F070
ENDCHAR

STARTCHAR i
ENCODING 105
SWIDTH 396 0
DWIDTH 10 0
BBX 8 19 1 0
BITMAP
06
0F
0F
06
00
3E
7E
1C
1C
3C
3C
38
78
78
70
73
F6
FC
70
ENDCHAR

STARTCHAR j
ENCODING 106
SWIDTH 396 0
DWIDTH 10 0
BBX 13 23 -4 -4
BITMAP
0030
0078
0078
0030
0000
00F8
03F0
0070
00F0
00F0
00E0
00E0
01E0
01E0
01C0
01C0
03C0
03C0
0380
0380
E700
7700
7C00
ENDCHAR

STARTCHAR k
ENCODING 107
SWIDTH 646 0
DWIDTH 16 0
BBX 15 20 1 0
BITMAP
0780
1F00
0F00
0F00
0F00
0E00
1E1C
1E7E
1ECE
1C80
3D00
3B00
3FC0
7CE0
78E0
78E0
70E2
F0E4
F0F8
E070
ENDCHAR

STARTCHAR l
ENCODING 108
SWIDTH 396 0
DWIDTH 10 0
BBX 9 19 2 0
BITMAP
3F80
0F00
0F00
0F00
0E00
1E00
1E00
1C00
3C00
3C00
3800
3800
7800
7800
7000
F300
F600
FC00
7000
ENDCHAR

STARTCHAR m
ENCODING 109
SWIDTH 948 0
DWIDTH 24 0
BBX 23 14 1 0
BITMAP
3E3838
7E7CFC
1FDDBC
1D3F3C
1E3E38
3C3878
3C7878
387870
7870F0
78F0F0
70F1E6
F0E1EC
F0E1F8
F1E0E0
ENDCHAR

STARTCHAR n
ENCODING 110
SWIDTH 677 0
DWIDTH 17 0
BBX 16 14 0 0
BITMAP
1F3C
3F7E
0EDE
1F1E
1E1C
1E3C
3C3C
3C38
3878
3878
78F3
78F6
70FC
F070
ENDCHAR

STARTCHAR o
ENCODING 111
SWIDTH 594 0
DWIDTH 15 0
BBX 13 14 1 0
BITMAP
0FC0
1C60
3870
7878
7878
F078
F078
F078
E0F0
E0F0
E0E0
E1E0
73C0
1F00
ENDCHAR

STARTCHAR p
ENCODING 112
SWIDTH 646 0
DWIDTH 16 0
BBX 18 18 -2 -4
BITMAP
03EF00
0FDF80
03E3C0
03C3C0
03C3C0
0383C0
0783C0
078780
070780
0F0780
0F0F00
0F9E00
0EFE00
1E7800
1E0000
1C0000
3C0000
FF8000
ENDCHAR

STARTCHAR q
ENCODING 113
SWIDTH 625 0
DWIDTH 16 0
BBX 15 18 0 -4
BITMAP
03E6
0E3C
1C3C
3C3C
783C
7838
7878
F078
F070
F0F0
F0F0
F3F0
7EE0
3DE0
01E0
01C0
03C0
0FF0
ENDCHAR

STARTCHAR r
ENCODING 114
SWIDTH 552 0
DWIDTH 14 0
BBX 13 14 0 0
BITMAP
3E38
7E78
1ED8
1F98
1F00
1E00
3C00
3C00
3800
7800
7800
7000
7000
F000
ENDCHAR

STARTCHAR s
ENCODING 115
SWIDTH 500 0
DWIDTH 13 0
BBX 11 14 1 0
BITMAP
0FC0
1CE0
38E0
3860
3C00
3E00
1F80
0F80
07C0
43C0
E1C0
E1C0
F380
3E00
ENDCHAR

STARTCHAR t
ENCODING 116
SWIDTH 406 0
DWIDTH 10 0
BBX 9 18 1 0
BITMAP
0100
0300
0300
0600
1E00
FF80
1C00
3C00
3C00
3C00
3800
7800
7800
7000
F300
F600
FC00
7000
ENDCHAR

STARTCHAR u
ENCODING 117
SWIDTH 677 0
DWIDTH 17 0
BBX 16 14 1 0
BITMAP
3F0E
7E1E
1E1E
1C1C
3C3C
3C3C
3838
7878
7878
70F0
F1F3
F6F6
FCFC
7870
ENDCHAR

STARTCHAR v
ENCODING 118
SWIDTH 562 0
DWIDTH 14 0
BBX 13 14 1 0
BITMAP
3E30
FE78
1C78
3C38
3C18
3C18
3810
7810
7830
7020
7040
78C0
3F80
1E00
ENDCHAR

STARTCHAR w
ENCODING 119
SWIDTH 865 0
DWIDTH 22 0
BBX 19 14 2 0
BITMAP
3C3DC0
FC39E0
3C78E0
387860
387860
787040
70F040
70F040
F0E0C0
F1E080
E16100
E2E300
FC7E00
783800
ENDCHAR

STARTCHAR x
ENCODING 120
SWIDTH 625 0
DWIDTH 16 0
BBX 16 14 0 0
BITMAP
0E0E
1F1F
37B6
27E0
03C0
03C0
03C0
01C0
03E0
06E0
04E2
E8E4
F8F8
F070
ENDCHAR

STARTCHAR y
ENCODING 121
SWIDTH 552 0
DWIDTH 14 0
BBX 15 18 -2 -4
BITMAP
070E
0F8E
1B8E
1386
0386
0384
03CC
03C8
01D8
01F0
01E0
01C0
01C0
0180
6300
F600
FC00
7000
ENDCHAR

STARTCHAR z
ENCODING 122
SWIDTH 542 0
DWIDTH 14 0
BBX 14 14 0 0
BITMAP
0F0C
1FF8
3FF0
2060
00C0
0180
0300
0600
0800
1000
2F10
6FF0
FFE0
83C0
ENDCHAR

STARTCHAR braceleft
ENCODING 123
SWIDTH 396 0
DWIDTH 10 0
BBX 10 22 3 -4
BITMAP
03C0
0600
0E00
0E00
0E00
0C00
1C00
1C00
1800
7000
8000
6000
3000
3000
7000
7000
E000
E000
C000
C000
6000
3000
ENDCHAR

STARTCHAR bar
ENCODING 124
SWIDTH 542 0
DWIDTH 14 0
BBX 2 20 6 0
BITMAP
C0
C0
C0
C0
C0
C0
C0
C0
C0
C0
C0
C0
C0
C0
C0
C0
C0
C0
C0
C0
ENDCHAR

STARTCHAR braceright
ENCODING 125
SWIDTH 396 0
DWIDTH 10 0
BBX 10 22 0 -4
BITMAP
0380
00C0
00C0
01C0
01C0
0380
0380
0300
0300
0180
00C0
0100
0600
0E00
0E00
0C00
0C00
0C00
1C00
1800
7000
8000
ENDCHAR

STARTCHAR asciitilde
ENCODING 126
SWIDTH 667 0
DWIDTH 17 0
BBX 13 4 2 6
BITMAP
7808
FF08
87F0
80E0
ENDCHAR

STARTCHAR space
ENCODING 160
SWIDTH 250 0
DWIDTH 8 0
BBX 0 0 0 0
BITMAP
ENDCHAR

STARTCHAR afii10023
ENCODING 161
SWIDTH 740 0
DWIDTH 18 0
BBX 20 23 -1 0
BITMAP
00F1E0
00F1E0
0060C0
000000
0FFFF0
03E0F0
01E070
03E060
03C020
03C260
03C200
07C600
079E00
07FC00
079C00
0F0C00
0F0800
0F0860
0F00C0
1E00C0
1E0380
1E0F80
FFFF80
ENDCHAR

STARTCHAR afii10051
ENCODING 162
SWIDTH 896 0
DWIDTH 22 0
BBX 20 19 2 0
BITMAP
3FFFC0
79F380
71E180
61E180
C1E180
03E000
03C000
03CFC0
03DFE0
07E3F0
0781F0
0781F0
0781F0
0F01F0
0F01E0
0F03E0
1F03C0
1F1F80
7FCF00
ENDCHAR

STARTCHAR afii10052
ENCODING 163
SWIDTH 719 0
DWIDTH 18 0
BBX 20 24 0 0
BITMAP
000780
000F00
001E00
000000
000000
0FFFF0
03E0F0
03C070
03C070
03C060
07C060
078060
078000
078000
0F8000
0F0000
0F0000
0F0000
1F0000
1E0000
1E0000
1E0000
3E0000
FF8000
ENDCHAR

STARTCHAR afii10053
ENCODING 164
SWIDTH 740 0
DWIDTH 18 0
BBX 18 19 2 0
BITMAP
01FE00
03C380
0F81C0
1F01C0
1E00C0
3E00C0
7C0080
7C0000
780000
FFE000
F80000
F80000
F80000
F80100
780300
7C0600
3E1C00
1FF800
07E000
ENDCHAR

STARTCHAR afii10054
ENCODING 165
SWIDTH 667 0
DWIDTH 17 0
BBX 17 19 0 0
BITMAP
03FE00
078F80
0E0380
1E0300
1E0300
1F0300
1F8000
0FE000
07F800
03FC00
00FE00
003F00
201F00
200F00
600F00
700E00
701E00
F83C00
3FF000
ENDCHAR

STARTCHAR afii10055
ENCODING 166
SWIDTH 479 0
DWIDTH 12 0
BBX 14 19 0 0
BITMAP
0FFC
01E0
01E0
03E0
03C0
03C0
03C0
0780
0780
0780
0780
0F00
0F00
0F00
0F00
1E00
1E00
3E00
FFC0
ENDCHAR

STARTCHAR afii10056
ENCODING 167
SWIDTH 479 0
DWIDTH 12 0
BBX 14 24 1 0
BITMAP
079C
07BC
079C
0000
0000
0FF8
03E0
03C0
03C0
03C0
0780
0780
0780
0780
0F00
0F00
0F00
0F00
1F00
1E00
1E00
1E00
3E00
FF80
ENDCHAR

STARTCHAR afii10057
ENCODING 168
SWIDTH 656 0
DWIDTH 16 0
BBX 19 19 0 0
BITMAP
00FFE0
001F00
001F00
001E00
001E00
001E00
003C00
003C00
003C00
003C00
007800
307800
787800
F87800
F8F000
E0F000
E1E000
73C000
3F8000
ENDCHAR

STARTCHAR afii10058
ENCODING 169
SWIDTH 1219 0
DWIDTH 30 0
BBX 29 20 0 -1
BITMAP
01FFFF00
00787C00
00707800
00607800
0060F800
0060F800
0060F000
0040F000
00C1F000
00C1FFE0
0081E1F0
0181E0F8
0183E078
0303C078
0303C078
0203C0F8
E607C1F0
FC07C3E0
FC1FFFC0
F0000000
ENDCHAR

STARTCHAR afii10059
ENCODING 170
SWIDTH 1198 0
DWIDTH 30 0
BBX 29 19 0 0
BITMAP
0FFDFF00
01E07C00
01E07800
01E07800
03E0F800
03C0F000
03C0F000
03C0F000
07C1F000
07FFFFE0
0781E1F0
0F81E0F8
0F03E078
0F03C078
0F03C078
1F03C0F8
1E07C1F0
1F07C3E0
FFDFFFC0
ENDCHAR

STARTCHAR afii10060
ENCODING 171
SWIDTH 917 0
DWIDTH 23 0
BBX 20 19 2 0
BITMAP
3FFFC0
38F3C0
71F1C0
61E080
C1E080
01E000
03E000
03CFC0
03FFE0
03F3E0
07C1E0
0781E0
0783E0
0783C0
0F83C0
0F03C0
0F07C0
1F07C0
7FDFF0
ENDCHAR

STARTCHAR afii10061
ENCODING 172
SWIDTH 833 0
DWIDTH 21 0
BBX 23 24 0 0
BITMAP
000040
0001E0
0003C0
000700
000000
0FF81C
03E07E
03C07E
03C0DE
03C08C
07C180
078300
078300
078600
0F9C00
0FFC00
0F1E00
1F0F00
1F0F00
1E0F00
1E0780
3E0780
3E03C0
FF83F0
ENDCHAR

STARTCHAR hyphen
ENCODING 173
SWIDTH 323 0
DWIDTH 8 0
BBX 6 2 1 6
BITMAP
FC
FC
ENDCHAR

STARTCHAR afii10062
ENCODING 174
SWIDTH 781 0
DWIDTH 20 0
BBX 20 25 2 0
BITMAP
01C700
01C700
01C600
007C00
000000
000000
7FCFF0
1F01C0
1E0180
1F0300
0F0200
0F0600
0F0C00
0F8800
079800
07B000
07A000
07E000
03C000
038000
630000
F30000
F60000
FC0000
780000
ENDCHAR

STARTCHAR afii10145
ENCODING 175
SWIDTH 865 0
DWIDTH 22 0
BBX 24 23 0 -4
BITMAP
0FFBFF
03E07C
03C078
03C078
03C0F0
0780F0
0780F0
0781F0
0F81E0
0F01E0
0F01E0
0F03E0
1F03C0
1E03C0
1E03C0
1E07C0
3E0780
3E07C0
FFFFF0
03F000
01E000
00C000
018000
ENDCHAR

STARTCHAR afii10017
ENCODING 176
SWIDTH 802 0
DWIDTH 20 0
BBX 21 19 -2 0
BITMAP
000300
000700
000700
000F00
001F00
001B80
003780
006780
006780
00C780
018780
0103C0
03FFC0
03FFC0
0603C0
0C03C0
1C01C0
3C03E0
FF0FF8
ENDCHAR

STARTCHAR afii10018
ENCODING 177
SWIDTH 802 0
DWIDTH 20 0
BBX 21 19 0 0
BITMAP
0FFFF8
03E070
03E030
03C030
03C030
03C020
078000
078000
07FF00
0787C0
0F03E0
0F01E0
0F01E0
0F01E0
1E01E0
1E03E0
1E07C0
3E1F80
FFFE00
ENDCHAR

STARTCHAR afii10019
ENCODING 178
SWIDTH 802 0
DWIDTH 20 0
BBX 20 19 0 0
BITMAP
0FFFC0
03E3E0
01E0F0
03C0F0
03C0F0
03C0F0
03C1F0
07C1E0
078780
07FE00
078780
0F03C0
0F01E0
0F01E0
0F01E0
1E03E0
1E07C0
1E0F80
FFFF00
ENDCHAR

STARTCHAR afii10020
ENCODING 179
SWIDTH 719 0
DWIDTH 18 0
BBX 20 19 0 0
BITMAP
0FFFF0
03E0F0
03C070
03C070
03C060
07C060
078060
078000
078000
0F8000
0F0000
0F0000
0F0000
1F0000
1E0000
1E0000
1E0000
3E0000
FF8000
ENDCHAR

STARTCHAR afii10021
ENCODING 180
SWIDTH 813 0
DWIDTH 20 0
BBX 26 23 -3 -4
BITMAP
007FFFC0
001E1E00
001C1E00
00181E00
00183C00
00183C00
00303C00
00307C00
00307800
00607800
00607800
0040F800
00C0F000
0180F000
0180F000
0301F000
0601E000
1C01E000
3FFFFC00
38003800
70001800
60001800
C0001000
ENDCHAR

STARTCHAR afii10022
ENCODING 181
SWIDTH 740 0
DWIDTH 18 0
BBX 20 19 0 0
BITMAP
0FFFF0
03E1E0
03C060
03C060
03C040
07C640
078400
078C00
079C00
0FFC00
0F3800
0F1800
0F1800
1F18C0
1E0080
1E0180
1E0380
3E0F00
FFFF00
ENDCHAR

STARTCHAR afii10024
ENCODING 182
SWIDTH 1177 0
DWIDTH 29 0
BBX 33 19 -2 0
BITMAP
0781FF0780
07C0FC0F80
07C0781F80
0760781380
0060F83000
0060F02000
0060F06000
0020F04000
0011E18000
007FFF8000
01F1E3C000
03E1E3C000
03C3C1E000
0783C1E000
0783C1E000
0F07C0E000
1F0780F000
3E07C0F800
FC3FF07C00
ENDCHAR

STARTCHAR afii10025
ENCODING 183
SWIDTH 656 0
DWIDTH 16 0
BBX 17 19 0 0
BITMAP
01FE00
078F00
060780
0C0780
0C0780
000780
000F00
001E00
03F000
03F800
007C00
003E00
003E00
003E00
C03C00
407C00
60F800
3FF000
0FC000
ENDCHAR

STARTCHAR afii10026
ENCODING 184
SWIDTH 865 0
DWIDTH 22 0
BBX 24 19 0 0
BITMAP
0FFBFF
03E07C
03C078
03C0F8
03C1F0
07C3F0
0786F0
078EF0
078DE0
0F19E0
0F31E0
0F61E0
1FC3C0
1F83C0
1F03C0
1E07C0
3E0780
3E07C0
FFBFF0
ENDCHAR

STARTCHAR afii10027
ENCODING 185
SWIDTH 865 0
DWIDTH 22 0
BBX 24 24 -1 0
BITMAP
001C70
001C70
001C60
0007C0
000000
07FDFF
01F03C
01E078
01E078
03E0F8
03C178
03C3F0
03C6F0
07CCF0
0788F0
0799E0
07B1E0
0F61E0
0FC1E0
0F81C0
0F03C0
1F03C0
1F07C0
FFDFF0
ENDCHAR

STARTCHAR afii10028
ENCODING 186
SWIDTH 844 0
DWIDTH 21 0
BBX 23 19 0 0
BITMAP
0FF83C
03E07E
03C07E
03C0DC
03C080
078180
078300
078200
0F8E00
0FFC00
0F1E00
0F0F00
1F0F00
1E0700
1E0780
1E0780
3E0380
3E03C0
FF83F0
ENDCHAR

STARTCHAR afii10029
ENCODING 187
SWIDTH 865 0
DWIDTH 22 0
BBX 24 19 0 0
BITMAP
01FFFF
007878
007078
006078
0060F0
0060F0
00C0F0
00C0F0
00C1E0
0081E0
0181E0
0101E0
0303C0
0303C0
0603C0
E607C0
FC0780
F807C0
F03FF0
ENDCHAR

STARTCHAR afii10030
ENCODING 188
SWIDTH 1031 0
DWIDTH 26 0
BBX 28 19 0 0
BITMAP
0FF00FF0
03701B80
03701B80
03703780
02F02F80
02F06F00
0670CF00
0678CF00
04799E00
04791E00
0C7B1E00
0C7A1E00
087E3C00
087C3C00
187C3C00
18783C00
18707800
7C307C00
FE23FF00
ENDCHAR

STARTCHAR afii10031
ENCODING 189
SWIDTH 865 0
DWIDTH 22 0
BBX 24 19 0 0
BITMAP
0FFBFF
03E078
03C078
03C0F8
07C0F0
0780F0
0780F0
0781F0
0FFFE0
0FFFE0
0F01E0
0F03E0
1F03C0
1E03C0
1E03C0
1E07C0
3E0780
3E07C0
FFBFF0
ENDCHAR

STARTCHAR afii10032
ENCODING 190
SWIDTH 823 0
DWIDTH 21 0
BBX 19 19 2 0
BITMAP
01FE00
07C780
0F03C0
1E01C0
3E01E0
3C01E0
7C01E0
7C01E0
F803E0
F803E0
F803E0
F803C0
F007C0
F00780
F00F80
700F00
781E00
3C7C00
0FE000
ENDCHAR

STARTCHAR afii10033
ENCODING 191
SWIDTH 865 0
DWIDTH 22 0
BBX 25 19 -1 0
BITMAP
07FFFF80
01E03C00
01E03C00
01E07C00
03E07800
03C07800
03C07800
03C0F800
07C0F000
0780F000
0780F000
0781F000
0F81E000
0F01E000
0F01E000
0F03E000
1E03C000
1F03E000
FFDFF800
ENDCHAR

STARTCHAR afii10034
ENCODING 192
SWIDTH 771 0
DWIDTH 19 0
BBX 20 19 0 0
BITMAP
0FFFC0
03E3E0
03E0F0
03C0F0
03C0F0
03C0F0
0781F0
0783E0
0787E0
07FF80
0F0000
0F0000
0F0000
0F0000
1E0000
1E0000
1E0000
3E0000
FFC000
ENDCHAR

STARTCHAR afii10035
ENCODING 193
SWIDTH 740 0
DWIDTH 18 0
BBX 18 19 2 0
BITMAP
00FE00
03C380
0F81C0
1F01C0
3E00C0
3C0080
7C0080
7C0000
780000
F80000
F80000
F80000
F80000
F80100
780300
7C0600
3E0C00
1FF800
07E000
ENDCHAR

STARTCHAR afii10036
ENCODING 194
SWIDTH 750 0
DWIDTH 19 0
BBX 19 19 2 0
BITMAP
3FFFE0
3CF1C0
30F0C0
60F0C0
61F0C0
41E0C0
C1E080
01E000
03E000
03C000
03C000
03C000
078000
078000
078000
078000
0F0000
0F8000
7FE000
ENDCHAR

STARTCHAR afii10037
ENCODING 195
SWIDTH 781 0
DWIDTH 20 0
BBX 21 19 2 0
BITMAP
7FCFF8
1F00C0
1E0180
1F0180
0F0300
0F0600
0F0400
0F8C00
079800
07B000
07A000
07E000
03C000
038000
630000
F30000
F60000
FC0000
780000
ENDCHAR

STARTCHAR afii10038
ENCODING 196
SWIDTH 990 0
DWIDTH 25 0
BBX 22 19 2 0
BITMAP
00FFC0
003F00
001E00
07FFF0
1F3C78
3E3C3C
7C3C3C
787C3C
F8783C
F8783C
F0787C
F0F878
F0F0F8
F0F0F0
78F3E0
3FFF80
01E000
01E000
0FFC00
ENDCHAR

STARTCHAR afii10039
ENCODING 197
SWIDTH 823 0
DWIDTH 21 0
BBX 24 19 -1 0
BITMAP
0FFCFF
01F03C
01F038
00F070
00F8E0
0079C0
007B00
003E00
003C00
003E00
003E00
006F00
01CF00
038F00
060780
0E0780
1C03C0
7E07E0
FF1FF8
ENDCHAR

STARTCHAR afii10040
ENCODING 198
SWIDTH 865 0
DWIDTH 22 0
BBX 24 23 0 -4
BITMAP
0FFBFF
03E07C
03C078
03C078
03C0F0
0780F0
0780F0
0781F0
0781E0
0F01E0
0F01E0
0F03E0
1F03C0
1E03C0
1E03C0
1E07C0
3E0780
3C07C0
FFFFF0
0000F0
000060
000060
000060
ENDCHAR

STARTCHAR afii10041
ENCODING 199
SWIDTH 823 0
DWIDTH 21 0
BBX 20 19 3 0
BITMAP
FFBFF0
3E07C0
3C0780
3C0780
3C0F80
7C0F00
780F00
780F00
781F00
7CFE00
3FEE00
1F9E00
003C00
003C00
003C00
003C00
007800
007C00
03FF00
ENDCHAR

STARTCHAR afii10042
ENCODING 200
SWIDTH 1240 0
DWIDTH 31 0
BBX 33 19 0 0
BITMAP
0FFBFEFF80
03E0F83E00
03C0F03E00
03C0F03C00
03C0F03C00
0781F03C00
0781E07800
0781E07800
0781E07800
0F03E0F800
0F03C0F000
0F03C0F000
1F03C0F000
1E07C1F000
1E0781E000
1E0781E000
3E0781E000
3C0F83E000
FFFFFFF800
ENDCHAR

STARTCHAR afii10043
ENCODING 201
SWIDTH 1240 0
DWIDTH 31 0
BBX 34 23 0 -4
BITMAP
0FFBFE7FC0
03E0F83E00
03C0F03E00
03C0F03C00
03C0F03C00
0781F03C00
0781E07C00
0781E07800
0781E07800
0F03E07800
0F03C0F000
0F03C0F000
1F03C0F000
1E07C1F000
1E0781E000
1E0781E000
3E0781E000
3C0F83F000
FFFFFFFC00
0000003800
0000001800
0000001800
0000001800
ENDCHAR

STARTCHAR afii10044
ENCODING 202
SWIDTH 938 0
DWIDTH 23 0
BBX 20 19 2 0
BITMAP
3FFC00
79F000
61E000
61E000
C1E000
83E000
03C000
03C000
03FF80
07C3E0
0781F0
0780F0
0780F0
0F80F0
0F01F0
0F01F0
0F03E0
1F0FC0
7FFF00
ENDCHAR

STARTCHAR afii10045
ENCODING 203
SWIDTH 1240 0
DWIDTH 31 0
BBX 34 19 0 0
BITMAP
0FF801FFC0
03E0003E00
03C0003C00
03C0003C00
03C0003C00
03C0007800
0780007800
0780007800
07FF00F800
0787C0F000
0F03E0F000
0F01E0F000
0F01E1F000
0F01E1E000
1E03E1E000
1E03E1E000
1E07C3E000
3E1F83E000
FFFE1FF800
ENDCHAR

STARTCHAR afii10046
ENCODING 204
SWIDTH 802 0
DWIDTH 20 0
BBX 19 19 0 0
BITMAP
0FF800
03E000
03C000
03C000
03C000
03C000
078000
078000
07FF00
0787C0
0F03E0
0F01E0
0F01E0
0F01E0
1E03E0
1E03E0
1E07C0
3E1F80
FFFE00
ENDCHAR

STARTCHAR afii10047
ENCODING 205
SWIDTH 740 0
DWIDTH 18 0
BBX 18 19 0 0
BITMAP
00F800
07FE00
1E0700
1C0780
1803C0
1803C0
3003C0
0003C0
0003C0
00FFC0
01FFC0
0007C0
000780
000F80
C00F00
601E00
707C00
3FF800
0FC000
ENDCHAR

STARTCHAR afii10048
ENCODING 206
SWIDTH 1135 0
DWIDTH 28 0
BBX 28 19 0 0
BITMAP
0FF83F80
03C0F1C0
03C1E0E0
0383C0E0
078780F0
078780F0
078F80F0
070F00F0
0FFF01F0
0FFF01F0
0F1E01E0
0E1E01E0
1E1E03E0
1E1E03C0
1E1E03C0
3C0E0780
3C0E0F00
7C079E00
FF83F800
ENDCHAR

STARTCHAR afii10049
ENCODING 207
SWIDTH 844 0
DWIDTH 21 0
BBX 24 19 0 0
BITMAP
007FFF
01F878
01E078
03E0F8
03C0F0
03C0F0
03C0F0
03E1F0
01F1E0
007FE0
01E3E0
03C3C0
07C3C0
0783C0
0F87C0
1F0780
1E0780
7E07C0
FC3FE0
ENDCHAR

STARTCHAR afii10065
ENCODING 208
SWIDTH 667 0
DWIDTH 17 0
BBX 15 14 1 0
BITMAP
0786
1FDC
1E6C
3C3C
783C
7838
7878
F078
F070
F0F0
F0F2
F3F4
7EF8
3C70
ENDCHAR

STARTCHAR afii10066
ENCODING 209
SWIDTH 594 0
DWIDTH 15 0
BBX 16 20 1 0
BITMAP
0001
03FE
07FE
0FFC
1C00
3000
27E0
6E70
5C38
5838
F838
F078
F078
F078
F078
E0F0
E0F0
61E0
73C0
1F00
ENDCHAR

STARTCHAR afii10067
ENCODING 210
SWIDTH 563 0
DWIDTH 14 0
BBX 13 14 0 0
BITMAP
03F0
0E78
1C38
3C78
7878
79E0
7700
FFE0
F0F0
F0F0
F0F0
70F0
39E0
1F80
ENDCHAR

STARTCHAR afii10068
ENCODING 211
SWIDTH 500 0
DWIDTH 13 0
BBX 12 14 0 0
BITMAP
03C0
0FE0
30F0
00F0
00E0
01C0
0700
1C00
7800
F000
F000
F0C0
7F00
3C00
ENDCHAR

STARTCHAR afii10069
ENCODING 212
SWIDTH 594 0
DWIDTH 15 0
BBX 13 19 1 0
BITMAP
0780
00E0
0070
0030
0038
0738
1FB8
3C78
7878
7878
F078
F078
F070
F0F0
E0F0
E0E0
E1E0
73C0
1F00
ENDCHAR

STARTCHAR afii10070
ENCODING 213
SWIDTH 500 0
DWIDTH 13 0
BBX 12 14 1 0
BITMAP
07E0
0E70
1C70
3870
78F0
70E0
F3C0
F700
FC00
F000
F060
78C0
7F80
1E00
ENDCHAR

STARTCHAR afii10072
ENCODING 214
SWIDTH 1146 0
DWIDTH 29 0
BBX 28 14 0 0
BITMAP
078383C0
1FC38F70
71E39C70
00E71C70
00E73820
00E73800
00FFF800
01EE7000
01CE7000
E1CE7000
E39C7860
E39C78C0
E71C3F80
3C1C1E00
ENDCHAR

STARTCHAR afii10073
ENCODING 215
SWIDTH 542 0
DWIDTH 14 0
BBX 12 14 1 0
BITMAP
1FE0
1CF0
3070
3070
00F0
00E0
0700
03C0
01E0
E1E0
E1E0
E1C0
E3C0
3F00
ENDCHAR

STARTCHAR afii10074
ENCODING 216
SWIDTH 677 0
DWIDTH 17 0
BBX 16 14 1 0
BITMAP
7F0E
7E1E
1E1E
1C1C
3C3C
3C3C
3838
7878
7878
70F0
F1F3
F6F6
FCFC
7870
ENDCHAR

STARTCHAR afii10075
ENCODING 217
SWIDTH 677 0
DWIDTH 17 0
BBX 16 18 1 0
BITMAP
018C
01F8
0060
0000
7F0E
7E1E
1E1E
1C1C
3C3C
3C3C
3838
7878
7878
70F0
F1F3
F6F6
FCFC
7870
ENDCHAR

STARTCHAR afii10076
ENCODING 218
SWIDTH 646 0
DWIDTH 16 0
BBX 16 14 1 0
BITMAP
7E0E
1E1F
1C36
3C60
3C40
3880
3FC0
79E0
79E0
71E0
70E0
F0F0
F0F8
E078
ENDCHAR

STARTCHAR afii10077
ENCODING 219
SWIDTH 708 0
DWIDTH 18 0
BBX 18 14 0 0
BITMAP
03FF80
00C780
018700
018F00
010F00
010E00
030E00
021E00
021E00
061C00
043CC0
EC3D80
F83F00
F01C00
ENDCHAR

STARTCHAR afii10078
ENCODING 220
SWIDTH 948 0
DWIDTH 24 0
BBX 24 14 -1 0
BITMAP
07F03E
01B06E
01B05C
0170BC
0171BC
017138
037338
027278
027478
067C70
0478F3
EC78F6
F870FC
F06070
ENDCHAR

STARTCHAR afii10079
ENCODING 221
SWIDTH 688 0
DWIDTH 17 0
BBX 16 14 1 0
BITMAP
7E1E
3E1E
1E1C
1C3C
3C3C
3C3C
3FF8
3878
7878
7870
70F3
F0F6
F0FC
E070
ENDCHAR

STARTCHAR afii10080
ENCODING 222
SWIDTH 594 0
DWIDTH 15 0
BBX 13 14 1 0
BITMAP
0FC0
1C60
3870
7878
7878
F078
F078
F078
E0F0
E0F0
E0E0
E1E0
73C0
1F00
ENDCHAR

STARTCHAR afii10081
ENCODING 223
SWIDTH 677 0
DWIDTH 17 0
BBX 16 14 0 0
BITMAP
3F3C
1E7E
0EDE
1F9E
1F1C
1E3C
3C3C
3C38
3878
3870
78F3
78F6
70FC
F070
ENDCHAR

STARTCHAR afii10082
ENCODING 224
SWIDTH 646 0
DWIDTH 16 0
BBX 18 18 -2 -4
BITMAP
0FEF00
07DF80
03F3C0
03C3C0
03C3C0
0383C0
0783C0
078780
070780
0F0780
0F0F00
0F9E00
0EFC00
1E7800
1E0000
1C0000
3C0000
FF8000
ENDCHAR

STARTCHAR afii10083
ENCODING 225
SWIDTH 510 0
DWIDTH 13 0
BBX 12 14 1 0
BITMAP
07E0
0E70
1C70
3870
7820
7000
7000
F000
F000
F000
F060
78C0
7F80
1E00
ENDCHAR

STARTCHAR afii10084
ENCODING 226
SWIDTH 958 0
DWIDTH 24 0
BBX 23 14 1 0
BITMAP
7E3878
7EFCFC
1FBDBC
1F3F3C
3E3C78
3C7878
387878
3878F0
7870F0
78F0F0
70F1E6
F0E1EC
F0E1F8
E1E0E0
ENDCHAR

STARTCHAR afii10085
ENCODING 227
SWIDTH 531 0
DWIDTH 13 0
BBX 15 18 -2 -4
BITMAP
070E
0F8E
1B8E
1386
0386
0384
03CC
03C8
01D8
01F0
01E0
01C0
01C0
0180
6300
F600
FC00
7000
ENDCHAR

STARTCHAR afii10086
ENCODING 228
SWIDTH 833 0
DWIDTH 21 0
BBX 19 23 1 -4
BITMAP
0007C0
000EE0
001CE0
001C00
003800
073BC0
1FFBE0
3CFCE0
3870E0
7870E0
70F0E0
F0E1E0
F0E1E0
E1E1C0
E1C3C0
E1E380
E5E780
7DDF00
7B9E00
038000
E70000
F60000
7C0000
ENDCHAR

STARTCHAR afii10087
ENCODING 229
SWIDTH 615 0
DWIDTH 15 0
BBX 15 14 0 0
BITMAP
0E0E
1F1E
372E
27E0
03C0
0380
03C0
03C0
03C0
06E0
0DE6
F8E4
F0F8
E070
ENDCHAR

STARTCHAR afii10088
ENCODING 230
SWIDTH 677 0
DWIDTH 17 0
BBX 15 18 1 -4
BITMAP
7F0E
7E1E
1E1E
3C1C
3C3C
3C3C
7838
7878
7878
70F0
F1F2
F6F6
FCFE
7874
000C
000C
001C
0030
ENDCHAR

STARTCHAR afii10089
ENCODING 231
SWIDTH 646 0
DWIDTH 16 0
BBX 15 14 1 0
BITMAP
FC3C
7C3C
3C38
3838
3878
7878
78F0
3FF0
1CF0
00E0
00E6
01EC
01F8
00E0
ENDCHAR

STARTCHAR afii10090
ENCODING 232
SWIDTH 948 0
DWIDTH 24 0
BBX 22 14 1 0
BITMAP
7E3C38
3E3C78
1C3878
3C7870
3C78F0
3870F0
3870E0
78F1E0
70F1E0
71E3C0
F3E7CC
F6EDD8
FDFBF0
70E1C0
ENDCHAR

STARTCHAR afii10091
ENCODING 233
SWIDTH 948 0
DWIDTH 24 0
BBX 21 18 1 -4
BITMAP
7E3C38
3E3C78
1C3878
3C3870
3C78F0
3870F0
3870E0
78F1E0
78F1E0
71E3C0
F3E7C8
F6EDD8
FDFBF8
70E1D0
000030
000030
000070
0000E0
ENDCHAR

STARTCHAR afii10092
ENCODING 234
SWIDTH 646 0
DWIDTH 16 0
BBX 15 14 0 0
BITMAP
3EC0
7F80
C180
0300
0600
0DF8
1F1C
1E1E
3E1E
3C1E
3C3C
3C3C
1C78
0FE0
ENDCHAR

STARTCHAR afii10093
ENCODING 235
SWIDTH 917 0
DWIDTH 23 0
BBX 21 14 1 0
BITMAP
FE03F0
3C00F0
3C00F0
3C00E0
3800E0
7BE1E0
7C71E0
7879C0
F87BC0
F07BC0
F0F398
F0F3B0
71E3E0
3F83C0
ENDCHAR

STARTCHAR afii10094
ENCODING 236
SWIDTH 604 0
DWIDTH 15 0
BBX 13 14 1 0
BITMAP
FE00
3C00
3C00
3C00
3800
7BE0
7C70
7878
F878
F078
F0F0
F0F0
71E0
3F80
ENDCHAR

STARTCHAR afii10095
ENCODING 237
SWIDTH 521 0
DWIDTH 13 0
BBX 12 14 0 0
BITMAP
0FC0
18E0
7070
0070
0070
0070
0FF0
00F0
00F0
E1E0
E1E0
E3C0
E780
3E00
ENDCHAR

STARTCHAR afii10096
ENCODING 238
SWIDTH 885 0
DWIDTH 22 0
BBX 21 14 0 0
BITMAP
3F0FC0
1E1C70
1E3870
1E7878
1C7878
1CF078
3FF078
3CF078
38E0F0
78E0F0
78E1E0
7061E0
7073C0
F01F00
ENDCHAR

STARTCHAR afii10097
ENCODING 239
SWIDTH 667 0
DWIDTH 17 0
BBX 17 14 -1 0
BITMAP
03FF00
078F00
0F0E00
0F1E00
0F1E00
071C00
01FC00
07FC00
0F3C00
0E3800
1E3980
3C7B00
7C7E00
F83800
ENDCHAR

STARTCHAR afii61352
ENCODING 240
SWIDTH 1115 0
DWIDTH 28 0
BBX 29 19 -1 0
BITMAP
00000F00
03F81F80
00F83F80
00F83300
00F82000
00BC61E0
01BC6730
01BC4E38
011E4E38
011EDE38
031EDC38
031F9C70
020F9C70
020F8CE0
060F8780
46070000
FC070000
FC071FC0
78063F80
ENDCHAR

STARTCHAR afii10071
ENCODING 241
SWIDTH 500 0
DWIDTH 13 0
BBX 13 19 1 0
BITMAP
0E38
0E38
0E38
0000
0000
07E0
0E70
1C70
3870
78F0
70E0
F3C0
F700
FC00
F000
F060
78C0
7F80
1E00
ENDCHAR

STARTCHAR afii10099
ENCODING 242
SWIDTH 635 0
DWIDTH 16 0
BBX 15 23 0 -4
BITMAP
1FC0
0F80
0780
3FFC
0700
0F3C
0F7E
0EDE
1F1E
1E1E
1C1C
3C3C
3C3C
3838
3878
7878
7870
70F0
F0E0
01C0
01C0
0380
0600
ENDCHAR

STARTCHAR afii10100
ENCODING 243
SWIDTH 563 0
DWIDTH 14 0
BBX 15 20 0 0
BITMAP
0018
003C
0038
00E0
0040
0000
1FFE
078E
0F04
0F04
0F04
0E00
1E00
1E00
1C00
1C00
3C00
3C00
3C00
FF00
ENDCHAR

STARTCHAR afii10101
ENCODING 244
SWIDTH 510 0
DWIDTH 13 0
BBX 12 14 1 0
BITMAP
07E0
0E70
1C70
3870
7820
7000
FF80
F000
F000
F000
F060
70C0
7F80
1E00
ENDCHAR

STARTCHAR afii10102
ENCODING 245
SWIDTH 500 0
DWIDTH 13 0
BBX 11 14 1 0
BITMAP
0FC0
1CE0
38E0
3860
3C00
3E00
1F80
0F80
07C0
43C0
E1C0
E1C0
F380
3E00
ENDCHAR

STARTCHAR afii10103
ENCODING 246
SWIDTH 396 0
DWIDTH 10 0
BBX 8 20 1 0
BITMAP
06
0F
0F
06
00
00
7E
1E
1C
3C
3C
38
38
78
78
70
F3
F6
FC
70
ENDCHAR

STARTCHAR afii10104
ENCODING 247
SWIDTH 396 0
DWIDTH 10 0
BBX 10 19 1 0
BITMAP
39C0
39C0
39C0
0000
0000
7F00
7E00
1E00
1C00
3C00
3C00
3C00
7800
7800
7800
7300
F600
FC00
7000
ENDCHAR

STARTCHAR afii10105
ENCODING 248
SWIDTH 396 0
DWIDTH 10 0
BBX 13 23 -4 -4
BITMAP
0030
0078
0078
0030
0000
0008
03F0
0070
00F0
00F0
00E0
00E0
01E0
01E0
01C0
01C0
03C0
03C0
0380
0380
E700
7700
7C00
ENDCHAR

STARTCHAR afii10106
ENCODING 249
SWIDTH 969 0
DWIDTH 24 0
BBX 24 14 -1 0
BITMAP
03FFC0
00E380
00C780
008780
018700
010FFC
010F8E
030F0F
021F0F
021E0F
061E1F
EC1E1E
FC0E3C
7807F0
ENDCHAR

STARTCHAR afii10107
ENCODING 250
SWIDTH 917 0
DWIDTH 23 0
BBX 22 14 0 0
BITMAP
1F0F00
3E0E00
1E1E00
1E1E00
1C1C00
1C3DF0
3FFE38
3C3C3C
387C3C
78783C
787878
707878
7039F0
F01FC0
ENDCHAR

STARTCHAR afii10108
ENCODING 251
SWIDTH 677 0
DWIDTH 17 0
BBX 16 19 0 0
BITMAP
1FC0
0F80
0780
3FFC
0700
0F3C
0F7E
0EDE
1F1E
1E1C
1C3C
3C3C
3C38
3878
7878
78F3
78F6
70FC
F070
ENDCHAR

STARTCHAR afii10109
ENCODING 252
SWIDTH 646 0
DWIDTH 16 0
BBX 16 20 1 0
BITMAP
0018
0038
0078
0060
0080
0000
7E0E
1E1F
1C36
3C60
3C40
3880
3FC0
79E0
79E0
71E0
70E0
F0F0
F0F8
E078
ENDCHAR

STARTCHAR section
ENCODING 253
SWIDTH 552 0
DWIDTH 14 0
BBX 15 23 0 -4
BITMAP
01F8
039C
070E
070C
0780
07C0
03E0
07E0
1DF0
18F8
3878
3C78
3C38
1E30
1F70
0FC0
0780
07C0
03C0
61C0
E1C0
7380
3F00
ENDCHAR

STARTCHAR afii10110
ENCODING 254
SWIDTH 531 0
DWIDTH 13 0
BBX 15 22 -2 -4
BITMAP
00C4
00F8
0070
0000
070E
0F8E
1B8E
1386
0386
0384
03CC
03C8
01D8
01F0
01E0
01C0
01C0
0180
6300
F600
FC00
7000
ENDCHAR

STARTCHAR afii10193
ENCODING 255
SWIDTH 677 0
DWIDTH 17 0
BBX 16 18 1 -4
BITMAP
7F0E
7E1E
1E1E
3C1C
3C3C
3C3C
7838
7878
7878
70F0
F1F3
F6F6
7CFC
7870
6000
6000
6000
8000
ENDCHAR
ENDFONT
